<svg width="651" height="599" viewBox="0 0 651 599" fill="none" xmlns="http://www.w3.org/2000/svg">
<path fill-rule="evenodd" clip-rule="evenodd" d="M320.601 32.1115C392.88 18.1036 475.737 -24.1167 535.65 18.6734C595.512 61.4272 572.951 155.4 592.514 226.313C610.835 292.723 665.59 354.362 646.518 420.56C627.34 487.127 557.936 524.468 497.079 557.564C442.744 587.114 382.366 601.039 320.601 597.809C261.382 594.711 208.204 569.766 157.045 539.778C100.278 506.503 33.1282 477.176 9.82628 415.64C-13.7751 353.313 9.07164 283.042 36.8951 222.482C62.3792 167.013 107.948 125.752 158.637 91.7388C207.607 58.8789 262.704 43.3318 320.601 32.1115Z" fill="#D0DDFD"/>
</svg>
